<?xml version="1.0" encoding="UTF-8" standalone="no"?>
<!-- Created with Inkscape (http://www.inkscape.org/) -->

<svg
   xmlns:dc="http://purl.org/dc/elements/1.1/"
   xmlns:cc="http://creativecommons.org/ns#"
   xmlns:rdf="http://www.w3.org/1999/02/22-rdf-syntax-ns#"
   xmlns:svg="http://www.w3.org/2000/svg"
   xmlns="http://www.w3.org/2000/svg"
   xmlns:xlink="http://www.w3.org/1999/xlink"
   xmlns:sodipodi="http://sodipodi.sourceforge.net/DTD/sodipodi-0.dtd"
   xmlns:inkscape="http://www.inkscape.org/namespaces/inkscape"
   width="744.09448819"
   height="1052.3622047"
   id="svg2"
   version="1.1"
   inkscape:version="0.48.2 r9819"
   sodipodi:docname="New document 1">
  <defs
     id="defs4">
    <linearGradient
       inkscape:collect="always"
       id="linearGradient3103">
      <stop
         style="stop-color:#000000;stop-opacity:1;"
         offset="0"
         id="stop3105" />
      <stop
         style="stop-color:#000000;stop-opacity:0;"
         offset="1"
         id="stop3107" />
    </linearGradient>
    <linearGradient
       inkscape:collect="always"
       xlink:href="#linearGradient3103"
       id="linearGradient3109"
       x1="171.40771"
       y1="414.71579"
       x2="710.56293"
       y2="613.7876"
       gradientUnits="userSpaceOnUse" />
  </defs>
  <sodipodi:namedview
     id="base"
     pagecolor="#ffffff"
     bordercolor="#666666"
     borderopacity="1.0"
     inkscape:pageopacity="0.0"
     inkscape:pageshadow="2"
     inkscape:zoom="0.35"
     inkscape:cx="375"
     inkscape:cy="520"
     inkscape:document-units="px"
     inkscape:current-layer="layer1"
     showgrid="false"
     inkscape:window-width="1366"
     inkscape:window-height="744"
     inkscape:window-x="0"
     inkscape:window-y="24"
     inkscape:window-maximized="1" />
  <metadata
     id="metadata7">
    <rdf:RDF>
      <cc:Work
         rdf:about="">
        <dc:format>image/svg+xml</dc:format>
        <dc:type
           rdf:resource="http://purl.org/dc/dcmitype/StillImage" />
        <dc:title></dc:title>
      </cc:Work>
    </rdf:RDF>
  </metadata>
  <g
     inkscape:label="Layer 1"
     inkscape:groupmode="layer"
     id="layer1">
    <g
       transform="scale(0.91677817,1.0907764)"
       style="font-size:324.11486816px;font-style:normal;font-weight:normal;line-height:125%;letter-spacing:0px;word-spacing:0px;fill:url(#linearGradient3109);fill-opacity:1;stroke:none;font-family:Sans"
       id="text2985">
      <path
         d="m 41.28682,638.9561 c 8.311534,0.49284 15.237822,0.49284 19.855347,0.49284 36.016635,0 60.027803,-11.33578 79.883143,-37.45726 14.77605,-20.20721 20.31711,-32.52873 31.39916,-72.94311 5.07926,-19.71433 22.16411,-86.74318 30.0139,-120.7504 16.1613,177.92184 16.62307,181.86492 17.54657,221.29359 l 22.62586,-18.72863 c 16.16132,-36.96437 47.09881,-88.22184 123.28786,-204.04355 l -4.61752,21.6858 c -1.38525,7.39286 -5.07928,22.17867 -10.6203,43.86442 -26.7816,106.45741 -32.32266,129.12902 -33.24616,131.5933 -3.69402,11.33574 -6.00278,21.68581 -6.00278,28.58582 0,6.90002 5.07927,12.81433 11.08204,12.81433 2.30876,0 5.07929,-0.49287 8.77329,-0.98571 4.61753,-0.98573 31.86093,-5.91431 43.40472,-7.88575 l 21.70236,-2.95716 c 1.38525,-0.49284 5.07929,-0.98571 11.08206,-1.97143 l 9.69679,-12.32148 c -7.84978,0.49288 -15.23782,0.98573 -17.54657,1.47859 -7.84979,0.49286 -15.23784,0.98572 -18.93185,0.98572 -14.77606,0 -23.08762,-7.3929 -23.08762,-19.71435 0,-12.81432 0.46178,-15.77154 12.46731,-68.01451 19.85534,-85.75736 21.24061,-91.67178 30.0139,-125.18615 18.47007,-68.50731 20.77886,-73.92883 32.78442,-73.92883 4.15576,0 10.15855,0.49288 16.16133,1.97145 1.38524,0.49285 6.92627,1.47858 12.4673,2.4643 l 18.93184,-27.60011 c -8.31152,-2.46429 -12.92906,-2.95716 -18.47009,-2.95716 -12.00555,0 -22.16412,3.94289 -38.78719,14.29293 -25.85809,15.77145 -30.47566,20.20721 -47.09873,45.34299 l -62.33655,92.65747 -52.17801,80.82884 -11.54381,17.74291 C 243.99607,484.69134 231.9905,375.76944 225.98771,341.26938 l -14.31431,12.32146 c -17.54657,-2.4643 -26.31988,-2.95715 -37.40193,-2.95715 -30.93736,0 -49.40752,8.37862 -71.10985,32.52867 -24.9346,26.61434 -39.710701,58.15737 -39.710701,83.29313 0,14.2929 2.770536,27.10726 10.620307,45.34302 L 109.1644,485.677 C 98.082362,460.04837 94.388332,447.72685 94.388332,433.43397 c 0,-32.03579 22.625888,-49.77876 62.798298,-49.77876 10.62029,0 18.00836,0.49287 33.24617,2.95715 -20.31708,88.22166 -45.25173,180.38637 -53.56326,196.15781 -8.77328,17.25005 -20.31712,24.64294 -40.172448,24.64294 -7.849786,0 -7.849817,0 -34.169678,-2.46428 L 41.28682,638.9561"
         style="font-style:italic;font-variant:normal;font-weight:bold;font-stretch:normal;text-align:center;text-anchor:middle;fill:#4d4d4d;font-family:URW Chancery L;-inkscape-font-specification:URW Chancery L Bold Italic"
         id="path3120"
         inkscape:connector-curvature="0" />
      <path
         d="m 408.88246,638.5304 c 78.1116,0 82.97343,-0.64825 109.22671,-15.2334 l 0.64823,-2.59292 c -14.26104,1.94469 -35.00443,3.24115 -52.50661,3.24115 -2.59292,0 -8.10288,-0.32412 -14.90929,-0.64823 24.95682,-21.06745 33.05972,-32.73563 38.56967,-57.36833 l 25.28096,-101.44796 c 42.45901,3.56526 42.78317,3.56526 49.26546,3.56526 15.23339,0 17.50221,-2.91706 25.28096,-35.0044 l -4.21349,-4.86172 c -13.2887,22.68801 -14.9093,24.30861 -26.57742,24.30861 -2.91703,0 -10.37169,-0.32411 -20.41924,-0.64823 -47.64484,-2.2688 -53.47896,-2.59292 -63.85063,-2.59292 -56.72004,0 -98.85503,30.79096 -98.85503,72.27762 0,10.37166 2.26881,19.4469 8.10287,30.79091 l 24.30862,-15.88163 c -6.15818,-15.88161 -7.45465,-20.74336 -7.45465,-29.81857 0,-18.15041 8.42701,-32.08738 24.30862,-39.54201 8.10286,-3.88937 20.09514,-5.50995 37.27321,-5.50995 6.8064,0 13.28872,0.32411 29.49445,1.62057 l -26.2533,105.66145 c -11.66813,47.64484 -17.82635,55.74776 -45.37608,57.04422 l -11.34402,12.64048"
         style="font-style:italic;font-variant:normal;font-weight:bold;font-stretch:normal;text-align:center;text-anchor:middle;fill:#4d4d4d;font-family:URW Chancery L;-inkscape-font-specification:URW Chancery L Bold Italic"
         id="path3122" />
      <path
         d="m 541.29959,570.29463 -22.21808,54.85425 c 17.67346,24.78987 41.40646,36.39367 74.22861,36.39367 77.25826,0 153.00181,-65.93065 153.00181,-132.91606 0,-21.6252 -8.07934,-32.7016 -45.44609,-63.29335 -36.86178,-30.06432 -42.92129,-39.03092 -42.92129,-61.71103 0,-34.28386 24.7429,-63.82081 54.53529,-63.82081 21.20816,0 28.78254,9.49404 34.33705,43.25047 l 33.32713,-24.7899 c -3.02974,-29.00943 -18.17847,-43.25047 -44.94114,-43.25047 -52.01045,0 -111.09042,60.12875 -111.09042,112.34572 0,23.73498 10.60411,41.1407 39.89157,64.8757 34.33701,28.48197 43.42626,42.72304 43.42626,66.98547 0,41.14064 -37.87179,77.53436 -81.80296,77.53436 -21.71311,0 -43.93122,-10.02146 -57.56504,-25.84479 -10.60407,-12.13121 -14.64374,-23.20758 -18.68339,-46.41512 l -8.07931,5.80189"
         style="font-style:italic;font-variant:normal;font-weight:bold;font-stretch:normal;text-align:center;text-anchor:middle;fill:#4d4d4d;font-family:URW Chancery L;-inkscape-font-specification:URW Chancery L Bold Italic"
         id="path3124"
         inkscape:connector-curvature="0" />
    </g>
    <path
       sodipodi:type="spiral"
       style="fill:none;stroke:#000000;stroke-width:1px;stroke-linecap:butt;stroke-linejoin:miter;stroke-opacity:1"
       id="path3113"
       sodipodi:cx="182.85715"
       sodipodi:cy="592.36218"
       sodipodi:expansion="1"
       sodipodi:revolution="3"
       sodipodi:radius="221.20265"
       sodipodi:argument="-18.229307"
       sodipodi:t0="0"
       d="m 182.85715,592.36218 c 9.02492,6.44636 -4.23699,15.34582 -10.71428,15.00001 -17.55304,-0.93712 -23.88762,-22.16456 -19.28574,-36.42856 8.23169,-25.51495 39.3156,-33.52397 62.14284,-23.57147 33.49989,14.60569 43.39704,56.68165 27.85721,87.85712 -20.71215,41.55201 -74.1217,53.36804 -113.57141,32.14294 C 79.642343,640.6526 65.896675,575.76577 92.857099,528.07653 125.50978,470.31849 201.94775,454.6375 257.85707,487.36213 c 65.8872,38.56484 83.50708,126.59694 45.00014,190.71425 C 258.39942,752.10235 158.7459,771.6636 86.428675,727.36226 4.2572491,677.02425 -17.247134,565.7309 32.857066,485.21944 89.066407,394.89774 212.01262,371.44889 300.71417,427.36209 c 98.47553,62.07426 123.86988,196.68287 62.14307,293.57139"
       transform="matrix(0.81735044,0,0,0.87921858,75.319252,-43.524586)" />
    <path
       sodipodi:type="spiral"
       style="fill:none;stroke:#000000;stroke-width:1px;stroke-linecap:butt;stroke-linejoin:miter;stroke-opacity:1"
       id="path3115"
       sodipodi:cx="422.85715"
       sodipodi:cy="532.36218"
       sodipodi:expansion="1"
       sodipodi:revolution="3"
       sodipodi:radius="239.47221"
       sodipodi:argument="-18.225145"
       sodipodi:t0="0"
       d="m 422.85715,532.36218 c 9.74117,7.01938 -4.65603,16.59403 -11.66667,16.19048 -18.9984,-1.0936 -25.76046,-24.1026 -20.71428,-39.52382 9.02644,-27.58495 42.71343,-36.11533 67.38096,-25.23808 36.20059,15.9628 46.7255,61.55809 29.76188,95.23811 -22.60983,44.89015 -80.48331,57.44135 -123.09525,34.28568 -53.62277,-29.13904 -68.21124,-99.44633 -38.80949,-150.95239 35.60947,-62.38074 118.43053,-79.01231 178.80954,-43.33329 71.15458,42.04648 89.83293,137.42789 47.8571,206.66668 -48.46276,79.93892 -156.43406,100.66659 -234.52383,52.3809 -88.73055,-54.86528 -111.50938,-175.44642 -56.9047,-262.38097 61.2582,-97.52744 194.46328,-122.35882 290.23811,-61.42851 106.32822,67.64419 133.21321,213.48355 65.95231,318.09526"
       transform="matrix(0.71646106,0,0,0.79158262,202.66754,132.53235)" />
    <path
       sodipodi:type="spiral"
       style="fill:none;stroke:#000000;stroke-width:1px;stroke-linecap:butt;stroke-linejoin:miter;stroke-opacity:1"
       id="path3117"
       sodipodi:cx="420"
       sodipodi:cy="683.79077"
       sodipodi:expansion="1"
       sodipodi:revolution="3"
       sodipodi:radius="258.86725"
       sodipodi:argument="-17.931091"
       sodipodi:t0="0"
       d="m 420,683.79077 c 7.8789,10.31418 -10.01614,15.70926 -17.14285,13.09525 -19.31294,-7.08378 -19.09999,-33.0073 -9.04766,-47.38094 17.98128,-25.71109 55.50618,-23.98212 77.61905,-5.00007 32.45153,27.85693 29.05511,78.32696 0.95247,107.85715 -37.4564,39.35911 -101.26418,34.2122 -138.09525,-3.09512 -46.34813,-46.94747 -39.41336,-124.25746 7.14272,-168.33335 56.38565,-53.38181 147.2824,-44.64014 198.57145,11.19031 60.44237,65.79426 49.88302,170.3271 -15.23791,228.80955 -75.18468,67.5203 -193.38499,55.13663 -259.04765,-19.2855 -74.61008,-84.56317 -60.39776,-216.45215 23.3331,-289.28575 93.93337,-81.7083 239.52605,-65.66434 319.52385,27.38069 88.81273,103.29762 70.93499,262.60502 -31.42829,349.76195"
       transform="matrix(0.66946983,0,0,0.71499669,71.627967,130.80878)" />
    <path
       style="fill:#ff7f2a"
       d="m 319.8528,744.84003 c -34.58297,-8.70961 -71.27505,-38.225 -85.75754,-68.98403 l -7.63719,-16.22046 10.32611,-22.91282 c 9.63482,-21.37888 11.13975,-23.19005 22.4796,-27.05392 l 12.15349,-4.14111 1.7289,14.59787 c 0.9509,8.02882 4.79012,20.78345 8.5316,28.34361 5.98732,12.09819 6.48173,15.51165 4.12489,28.47873 -3.27127,17.99815 0.29188,27.98571 9.98414,27.98571 3.64298,0 18.13483,-2.43977 32.20411,-5.42171 C 370.7174,690.45615 375,689.96633 375,694.13523 c 0,2.93116 6.92188,3.50936 31.81307,2.65738 l 31.81308,-1.08889 -8.24165,10.42065 c -10.26234,12.97559 -32.73355,28.63957 -49.67021,34.62356 -16.02625,5.66232 -46.49286,7.71078 -60.86149,4.0921 z"
       id="path3170"
       inkscape:connector-curvature="0" />
    <path
       style="fill:#ff7f2a"
       d="m 436.47231,477.60887 c -3.11881,-2.35722 -13.0831,-6.9886 -22.14286,-10.29196 -11.77444,-4.29317 -16.47231,-7.48018 -16.47231,-11.1747 0,-2.84273 7.22078,-12.9679 16.04617,-22.50037 28.08671,-30.33701 76.64404,-49.09845 114.90408,-44.3963 14.94815,1.83713 40.10164,9.37009 51.30021,15.36338 5.60452,2.99945 5.59205,3.23608 -1.14937,21.80849 -3.74846,10.32688 -6.81537,23.6413 -6.81537,29.5876 l 0,10.81147 -17.77001,-8.79858 c -32.95315,-16.3163 -75.88815,-10.17149 -99.55692,14.24849 -10.81553,11.15879 -10.69472,11.1236 -18.34362,5.34248 z"
       id="path3172"
       inkscape:connector-curvature="0" />
    <path
       style="fill:#ff7f2a"
       d="M 322.58221,420.06894 C 315.11183,405.62281 294.25421,387.22606 275,378.10069 c -16.09453,-7.62787 -21.64835,-8.7852 -41.64172,-8.6775 -17.60013,0.0948 -26.23027,1.60965 -36.39743,6.38878 -10.07926,4.73781 -18.73104,6.27979 -35.50114,6.32725 -27.42365,0.0776 -40.61109,5.56151 -59.19187,24.61453 -11.183574,11.46781 -13.194137,12.64679 -11.513254,6.75129 8.68037,-30.44539 43.622354,-71.64815 74.511324,-87.862 59.28107,-31.11707 125.51857,-20.71301 176.27499,27.68789 19.31139,18.41518 20.28999,19.93508 16.02793,24.89338 -2.49656,2.9044 -8.81477,12.99502 -14.04046,22.42359 -16.28481,29.38225 -15.95375,29.0753 -20.94616,19.42104 z"
       id="path3174"
       inkscape:connector-curvature="0" />
    <path
       style="fill:#ff7f2a"
       d="m 225.37324,541.91489 c -0.79291,-3.8397 -2.11397,-16.57988 -2.93571,-28.3115 -1.17953,-16.83996 -0.55706,-22.36559 2.95696,-26.24854 2.52512,-2.79023 3.49852,-6.45945 2.24968,-8.48012 -1.59966,-2.58831 -2.79264,-2.05184 -4.36479,1.96281 -2.10659,5.37941 -2.17508,5.37443 -2.60537,-0.18964 -0.24305,-3.14286 -1.37487,-13.19264 -2.51514,-22.33284 -2.33781,-18.73934 0.15515,-21.95288 17.03034,-21.95288 17.57521,0 36.05165,17.17885 40.99073,38.11197 1.68453,7.13946 0.0802,9.87971 -13.38225,22.85715 -8.41294,8.10984 -19.95072,23.0296 -25.63953,33.15502 -9.15974,16.30329 -10.50824,17.61102 -11.78492,11.42857 l 0,0 z"
       id="path3176"
       inkscape:connector-curvature="0" />
    <path
       style="fill:#ff7f2a"
       d="m 409.83428,648.56114 c -4.01368,-5.63669 -6.26285,-13.03078 -6.26285,-20.58893 0,-15.41319 -5.83303,-28.90755 -16.21042,-37.50179 l -8.36253,-6.92561 7.90241,-20.01988 c 4.34633,-11.01094 7.94668,-22.91275 8.00077,-26.44846 0.128,-8.36718 2.63506,-8.10932 16.11814,1.65777 9.98071,7.22999 11.68492,10.3314 16.09239,29.28572 4.888,21.02082 4.86973,21.46406 -2.16882,52.62794 -3.90408,17.28571 -7.49161,32.61658 -7.97228,34.06859 -0.48068,1.45201 -3.69224,-1.3179 -7.13681,-6.15535 l 0,0 z"
       id="path3178"
       inkscape:connector-curvature="0" />
    <path
       style="fill:#ff00ff"
       d="m 557.85714,690.16655 c -15.50203,-4.37642 -15.92407,-6.99533 -2.47118,-15.33449 37.35774,-23.15725 59.30039,-62.51811 59.67271,-107.04131 l 0.1792,-21.42857 9.68184,10.95986 c 14.30229,16.19018 21.50886,33.53209 21.50886,51.75897 0,35.68454 -23.97386,70.87198 -54.45332,79.9234 -17.02237,5.0551 -19.97261,5.1556 -34.11811,1.16214 z"
       id="path3180"
       inkscape:connector-curvature="0" />
    <path
       style="fill:#ff00ff"
       d="m 125.77382,577.07647 c -13.66831,-14.4383 -27.840578,-38.58996 -26.297902,-44.81557 0.803922,-3.2443 -1.16,-13.49285 -4.364266,-22.77457 -7.920709,-22.94374 -7.825562,-50.21684 0.225164,-64.54118 7.206564,-12.82235 21.773724,-21.61556 40.364504,-24.36532 l 13.55846,-2.00544 -4.19141,11.87972 c -9.31552,26.40299 -8.18842,55.22896 3.08866,78.99364 4.0705,8.57794 4.05796,11.4446 -0.13888,31.74339 -6.50943,31.48398 -10.03872,43.74247 -12.59373,43.74247 -1.21686,0 -5.55963,-3.53571 -9.6506,-7.85714 z"
       id="path3182"
       inkscape:connector-curvature="0" />
    <path
       style="fill:#ff00ff"
       d="m 366.42857,456.70745 c 0,-3.99144 10.94539,-49.38589 12.21358,-50.65408 2.37858,-2.37859 13.85913,36.12138 13.00278,43.60477 -0.84112,7.3503 -2.09872,8.21713 -13.0735,9.01118 -6.732,0.48708 -12.14286,-0.38713 -12.14286,-1.96187 z"
       id="path3184"
       inkscape:connector-curvature="0" />
  </g>
</svg>
